<?xml version="1.0" encoding="UTF-8"?>
<svg version="1.1" xmlns="http://www.w3.org/2000/svg" width="1024" height="1024">
<path d="M0 0 C1.2962027 -0.00095673 2.5924054 -0.00191345 3.92788696 -0.00289917 C6.64887713 -0.00435804 9.36983407 -0.00228153 12.09082031 0.00244141 C15.52862554 0.00812692 18.96635319 0.00476092 22.40415573 -0.00099564 C57.99240833 -0.05174317 57.99240833 -0.05174317 67.8515625 2.1328125 C67.8515625 2.7928125 67.8515625 3.4528125 67.8515625 4.1328125 C68.90214844 4.17019531 69.95273437 4.20757812 71.03515625 4.24609375 C84.20089373 4.82070142 84.20089373 4.82070142 90.49609375 7.3046875 C94.78639228 8.81305116 99.26659507 9.5741723 103.71484375 10.484375 C106.11413838 10.98036866 108.48232341 11.51271536 110.8515625 12.1328125 C110.8515625 12.7928125 110.8515625 13.4528125 110.8515625 14.1328125 C111.89054687 14.37515625 112.92953125 14.6175 114 14.8671875 C121.88626175 16.74793227 129.43383652 18.78057095 136.8515625 22.1328125 C136.8515625 22.7928125 136.8515625 23.4528125 136.8515625 24.1328125 C137.44582031 24.29136719 138.04007812 24.44992188 138.65234375 24.61328125 C145.37653745 26.50609472 151.56195862 29.10758478 157.8515625 32.1328125 C157.8515625 32.7928125 157.8515625 33.4528125 157.8515625 34.1328125 C158.38523437 34.29136719 158.91890625 34.44992188 159.46875 34.61328125 C165.60024553 36.53335165 171.17615764 39.13515607 176.8515625 42.1328125 C176.8515625 42.7928125 176.8515625 43.4528125 176.8515625 44.1328125 C177.56828125 44.4009375 178.285 44.6690625 179.0234375 44.9453125 C181.88214153 46.14565231 184.44303075 47.54087732 187.1015625 49.1328125 C187.97296875 49.6484375 188.844375 50.1640625 189.7421875 50.6953125 C191.8515625 52.1328125 191.8515625 52.1328125 192.8515625 54.1328125 C194.23580754 54.99939566 195.65944689 55.80389013 197.1015625 56.5703125 C197.91625 57.01246094 198.7309375 57.45460937 199.5703125 57.91015625 C200.323125 58.31363281 201.0759375 58.71710938 201.8515625 59.1328125 C205.88371541 61.33216863 208.60909356 63.89034356 211.8515625 67.1328125 C212.8415625 67.7928125 213.8315625 68.4528125 214.8515625 69.1328125 C217.93251319 71.18677962 220.24179044 73.52304044 222.8515625 76.1328125 C225.01776794 77.42801245 225.01776794 77.42801245 226.8515625 78.1328125 C227.8003125 77.3078125 228.7490625 76.4828125 229.7265625 75.6328125 C232.6015625 73.1328125 232.6015625 73.1328125 234.8515625 73.1328125 C235.191875 72.2665625 235.191875 72.2665625 235.5390625 71.3828125 C237.76205118 67.57197476 240.70945242 65.51351586 244.8515625 64.1328125 C245.5528125 63.3903125 246.2540625 62.6478125 246.9765625 61.8828125 C250.4914825 58.5207151 255.73798937 54.1328125 260.8515625 54.1328125 C261.1815625 53.1428125 261.5115625 52.1528125 261.8515625 51.1328125 C263.57247047 50.09377372 265.2992599 49.0609284 267.07421875 48.1171875 C268.99985998 47.11053372 268.99985998 47.11053372 271.1015625 45.3828125 C272.8515625 44.1328125 272.8515625 44.1328125 275.8515625 44.1328125 C275.8515625 43.4728125 275.8515625 42.8128125 275.8515625 42.1328125 C278.45216754 40.79210932 281.05661166 39.46007896 283.6640625 38.1328125 C284.40205078 37.75125 285.14003906 37.3696875 285.90039062 36.9765625 C286.61259766 36.615625 287.32480469 36.2546875 288.05859375 35.8828125 C288.7131958 35.54765625 289.36779785 35.2125 290.04223633 34.8671875 C291.8515625 34.1328125 291.8515625 34.1328125 294.8515625 34.1328125 C295.1815625 33.1428125 295.5115625 32.1528125 295.8515625 31.1328125 C297.58569336 30.1496582 297.58569336 30.1496582 299.81640625 29.30859375 C300.61626953 29.00244141 301.41613281 28.69628906 302.24023438 28.38085938 C303.08134766 28.07212891 303.92246094 27.76339844 304.7890625 27.4453125 C305.62630859 27.12498047 306.46355469 26.80464844 307.32617188 26.47460938 C313.53268257 24.1328125 313.53268257 24.1328125 315.8515625 24.1328125 C315.8515625 23.4728125 315.8515625 22.8128125 315.8515625 22.1328125 C324.39542363 18.59501076 332.78431914 15.95813318 341.8515625 14.1328125 C341.8515625 13.4728125 341.8515625 12.8128125 341.8515625 12.1328125 C342.97433594 11.87886719 344.09710937 11.62492187 345.25390625 11.36328125 C346.76583369 11.01653372 348.27753793 10.66881204 349.7890625 10.3203125 C350.57740479 10.13944092 351.36574707 9.95856934 352.17797852 9.7722168 C356.00083106 8.87609368 359.64513351 7.92933197 363.2890625 6.4453125 C366.36080633 5.45915459 369.17288509 4.92070699 372.390625 4.7265625 C373.21377197 4.67588623 374.03691895 4.62520996 374.88500977 4.57299805 C378.53996594 4.38846845 382.19371098 4.24724367 385.8515625 4.1328125 C385.8515625 3.4728125 385.8515625 2.8128125 385.8515625 2.1328125 C389.31505856 0.97831381 392.56661139 0.77274686 396.1796875 0.578125 C396.9561261 0.53607941 397.7325647 0.49403381 398.53253174 0.45071411 C409.89590588 -0.09008229 421.27459409 -0.01595063 432.64794922 0.00244141 C436.60778599 0.00782095 440.56751032 0.00245611 444.52734375 -0.00390625 C447.08854191 -0.00324566 449.64974001 -0.0019649 452.2109375 0 C453.3727655 -0.00202423 454.53459351 -0.00404846 455.73162842 -0.00613403 C475.46628446 0.04930537 475.46628446 0.04930537 484.8515625 2.1328125 C484.8515625 2.7928125 484.8515625 3.4528125 484.8515625 4.1328125 C485.604375 4.15859375 486.3571875 4.184375 487.1328125 4.2109375 C499.8501381 4.89001799 511.75356656 8.29402533 523.8515625 12.1328125 C523.8515625 12.7928125 523.8515625 13.4528125 523.8515625 14.1328125 C524.57859375 14.29136719 525.305625 14.44992188 526.0546875 14.61328125 C533.6999061 16.38736403 540.69594564 18.92293472 547.8515625 22.1328125 C547.8515625 22.7928125 547.8515625 23.4528125 547.8515625 24.1328125 C549.1096875 24.5246875 550.3678125 24.9165625 551.6640625 25.3203125 C567.00644084 30.44256918 567.00644084 30.44256918 568.8515625 34.1328125 C570.47597988 35.15296334 570.47597988 35.15296334 572.44921875 36.078125 C573.16787109 36.43261719 573.88652344 36.78710938 574.62695312 37.15234375 C575.75907227 37.69955078 575.75907227 37.69955078 576.9140625 38.2578125 C577.67267578 38.63035156 578.43128906 39.00289062 579.21289062 39.38671875 C581.08981337 40.3074733 582.97035646 41.22084114 584.8515625 42.1328125 C584.8515625 42.7928125 584.8515625 43.4528125 584.8515625 44.1328125 C585.5115625 44.3390625 586.1715625 44.5453125 586.8515625 44.7578125 C590.92336436 46.62405502 594.53953248 49.10842777 597.8515625 52.1328125 C597.8515625 52.7928125 597.8515625 53.4528125 597.8515625 54.1328125 C598.5321875 54.3390625 599.2128125 54.5453125 599.9140625 54.7578125 C603.76795625 56.56176277 606.92944014 59.033847 609.8515625 62.1328125 C609.8515625 62.7928125 609.8515625 63.4528125 609.8515625 64.1328125 C610.5734375 64.3596875 611.2953125 64.5865625 612.0390625 64.8203125 C615.41588667 66.39616378 617.40923289 68.34157866 619.8515625 71.1328125 C619.8515625 71.7928125 619.8515625 72.4528125 619.8515625 73.1328125 C620.7178125 73.54273438 620.7178125 73.54273438 621.6015625 73.9609375 C627.88263338 77.23232858 632.07734491 81.14612253 635.8515625 87.1328125 C637.51426537 88.47108554 639.18072431 89.80471035 640.8515625 91.1328125 C641.90048488 92.76913142 642.90062953 94.43767113 643.8515625 96.1328125 C645.58259035 98.40105589 647.36927026 100.59056681 649.265625 102.72265625 C658.8515625 113.56213942 658.8515625 113.56213942 658.8515625 118.1328125 C659.8415625 118.4628125 660.8315625 118.7928125 661.8515625 119.1328125 C663.1120019 121.39341495 664.22404554 123.59566312 665.2890625 125.9453125 C667.51090499 130.90726101 667.51090499 130.90726101 670.87109375 135.140625 C673.49871603 137.78379534 674.71948388 140.80005304 676.1015625 144.1953125 C676.3696875 144.81986328 676.6378125 145.44441406 676.9140625 146.08789062 C678.10559181 148.93601043 678.8515625 151.01492946 678.8515625 154.1328125 C679.5115625 154.1328125 680.1715625 154.1328125 680.8515625 154.1328125 C684.42067283 161.39449296 687.49498625 168.1290126 688.8515625 176.1328125 C689.5115625 176.1328125 690.1715625 176.1328125 690.8515625 176.1328125 C695.34375 191.85546875 695.34375 191.85546875 696.12451172 194.60375977 C696.56804124 196.14658124 697.02053003 197.68690948 697.48876953 199.22241211 C698.86574884 203.76815437 699.01667087 207.42722409 698.8515625 212.1328125 C699.5115625 212.1328125 700.1715625 212.1328125 700.8515625 212.1328125 C703.86293331 225.08463065 704.01287532 238.13380683 704.01953125 251.37109375 C704.02275714 252.90602141 704.02612213 254.44094878 704.02961731 255.97587585 C704.03555841 259.17362174 704.03746238 262.3713408 704.03686523 265.5690918 C704.03676377 269.6196394 704.0504224 273.67001111 704.06763744 277.72051716 C704.07888104 280.88570409 704.08078072 284.05085009 704.08025551 287.21605492 C704.08141687 288.70723261 704.08573151 290.19841203 704.09358788 291.68956947 C704.14287548 302.00700047 703.34757458 311.91808309 701.8515625 322.1328125 C701.6625596 323.45352644 701.47403947 324.77430957 701.28605652 326.09516907 C701.14267349 327.0975914 700.99929047 328.10001373 700.8515625 329.1328125 C700.1915625 329.1328125 699.5315625 329.1328125 698.8515625 329.1328125 C698.9340625 330.3290625 699.0165625 331.5253125 699.1015625 332.7578125 C699.1015625 339.54522288 696.84279846 345.70838568 694.8515625 352.1328125 C694.08783721 354.75395357 693.34437211 357.38067962 692.6015625 360.0078125 C692.01822917 362.04947917 691.43489583 364.09114583 690.8515625 366.1328125 C690.1915625 366.1328125 689.5315625 366.1328125 688.8515625 366.1328125 C688.77679687 366.6690625 688.70203125 367.2053125 688.625 367.7578125 C687.19189581 376.3002375 684.01549724 384.11353136 680.8515625 392.1328125 C680.1915625 392.1328125 679.5315625 392.1328125 678.8515625 392.1328125 C678.69300781 392.73867188 678.53445313 393.34453125 678.37109375 393.96875 C676.56515663 400.45415955 674.03916097 406.21118688 670.8515625 412.1328125 C670.1915625 412.1328125 669.5315625 412.1328125 668.8515625 412.1328125 C668.61373047 412.93332031 668.61373047 412.93332031 668.37109375 413.75 C666.45102335 419.88149553 663.84921893 425.45740764 660.8515625 431.1328125 C660.1915625 431.1328125 659.5315625 431.1328125 658.8515625 431.1328125 C658.5834375 431.85855469 658.3153125 432.58429688 658.0390625 433.33203125 C656.86485869 436.10145274 655.5121301 438.44200684 653.8515625 440.9453125 C653.3359375 441.73550781 652.8203125 442.52570313 652.2890625 443.33984375 C651.5775 444.22736328 651.5775 444.22736328 650.8515625 445.1328125 C650.1915625 445.1328125 649.5315625 445.1328125 648.8515625 445.1328125 C648.6246875 445.9784375 648.3978125 446.8240625 648.1640625 447.6953125 C646.83253004 451.18265942 645.23462746 453.59977612 642.97265625 456.51953125 C641.65434188 458.25499151 641.65434188 458.25499151 640.8515625 461.1328125 C639.18489583 462.79947917 637.51822917 464.46614583 635.8515625 466.1328125 C634.99640596 467.2835787 634.16337053 468.45106664 633.3515625 469.6328125 C631.15107014 472.82663057 628.59594284 475.38843216 625.8515625 478.1328125 C625.1296875 479.2259375 624.4078125 480.3190625 623.6640625 481.4453125 C622.766875 482.775625 622.766875 482.775625 621.8515625 484.1328125 C621.1915625 484.1328125 620.5315625 484.1328125 619.8515625 484.1328125 C619.6453125 484.8340625 619.4390625 485.5353125 619.2265625 486.2578125 C617.4681247 489.93454609 615.04728109 492.60576329 611.8515625 495.1328125 C611.1915625 495.1328125 610.5315625 495.1328125 609.8515625 495.1328125 C609.6865625 495.8134375 609.5215625 496.4940625 609.3515625 497.1953125 C607.48797605 500.84483595 605.07010344 502.64521347 601.9453125 505.2265625 C599.2508239 507.67975361 597.29039181 510.4140945 595.2734375 513.43359375 C593.64810273 515.37595811 592.12202641 516.07294864 589.8515625 517.1328125 C589.5628125 517.7103125 589.2740625 518.2878125 588.9765625 518.8828125 C587.30800292 522.21993166 584.73665378 524.78083592 581.8515625 527.1328125 C581.1915625 527.1328125 580.5315625 527.1328125 579.8515625 527.1328125 C579.6453125 527.6690625 579.4390625 528.2053125 579.2265625 528.7578125 C577.31905824 532.05259259 574.80336866 534.72644878 571.8515625 537.1328125 C571.1915625 537.1328125 570.5315625 537.1328125 569.8515625 537.1328125 C569.6453125 537.6690625 569.4390625 538.2053125 569.2265625 538.7578125 C567.31905824 542.05259259 564.80336866 544.72644878 561.8515625 547.1328125 C561.1915625 547.1328125 560.5315625 547.1328125 559.8515625 547.1328125 C559.6453125 547.6690625 559.4390625 548.2053125 559.2265625 548.7578125 C557.31905824 552.05259259 554.80336866 554.72644878 551.8515625 557.1328125 C551.1915625 557.1328125 550.5315625 557.1328125 549.8515625 557.1328125 C549.6453125 557.6690625 549.4390625 558.2053125 549.2265625 558.7578125 C547.31905824 562.05259259 544.80336866 564.72644878 541.8515625 567.1328125 C541.1915625 567.1328125 540.5315625 567.1328125 539.8515625 567.1328125 C539.6453125 567.6690625 539.4390625 568.2053125 539.2265625 568.7578125 C537.31905824 572.05259259 534.80336866 574.72644878 531.8515625 577.1328125 C531.1915625 577.1328125 530.5315625 577.1328125 529.8515625 577.1328125 C529.58730469 577.73609375 529.32304688 578.339375 529.05078125 578.9609375 C527.79401176 581.2370412 526.69716088 582.30099683 524.6640625 583.8828125 C521.13649798 586.76230671 518.30216966 589.97260512 515.4296875 593.49609375 C513.8515625 595.1328125 513.8515625 595.1328125 510.8515625 596.1328125 C510.5834375 596.6896875 510.3153125 597.2465625 510.0390625 597.8203125 C508.3187195 601.17045413 505.76580962 603.75706757 502.8515625 606.1328125 C502.1915625 606.1328125 501.5315625 606.1328125 500.8515625 606.1328125 C500.6453125 606.6690625 500.4390625 607.2053125 500.2265625 607.7578125 C498.31905824 611.05259259 495.80336866 613.72644878 492.8515625 616.1328125 C492.1915625 616.1328125 491.5315625 616.1328125 490.8515625 616.1328125 C490.6453125 616.6690625 490.4390625 617.2053125 490.2265625 617.7578125 C488.31905824 621.05259259 485.80336866 623.72644878 482.8515625 626.1328125 C482.1915625 626.1328125 481.5315625 626.1328125 480.8515625 626.1328125 C480.6453125 626.6690625 480.4390625 627.2053125 480.2265625 627.7578125 C478.31905824 631.05259259 475.80336866 633.72644878 472.8515625 636.1328125 C472.1915625 636.1328125 471.5315625 636.1328125 470.8515625 636.1328125 C470.6453125 636.6690625 470.4390625 637.2053125 470.2265625 637.7578125 C468.31905824 641.05259259 465.80336866 643.72644878 462.8515625 646.1328125 C462.1915625 646.1328125 461.5315625 646.1328125 460.8515625 646.1328125 C460.6453125 646.6690625 460.4390625 647.2053125 460.2265625 647.7578125 C458.31905824 651.05259259 455.80336866 653.72644878 452.8515625 656.1328125 C452.1915625 656.1328125 451.5315625 656.1328125 450.8515625 656.1328125 C450.6453125 656.6690625 450.4390625 657.2053125 450.2265625 657.7578125 C448.31905824 661.05259259 445.80336866 663.72644878 442.8515625 666.1328125 C442.1915625 666.1328125 441.5315625 666.1328125 440.8515625 666.1328125 C440.6453125 666.6690625 440.4390625 667.2053125 440.2265625 667.7578125 C438.31905824 671.05259259 435.80336866 673.72644878 432.8515625 676.1328125 C432.1915625 676.1328125 431.5315625 676.1328125 430.8515625 676.1328125 C430.6453125 676.6690625 430.4390625 677.2053125 430.2265625 677.7578125 C428.31905824 681.05259259 425.80336866 683.72644878 422.8515625 686.1328125 C422.1915625 686.1328125 421.5315625 686.1328125 420.8515625 686.1328125 C420.58730469 686.73609375 420.32304688 687.339375 420.05078125 687.9609375 C418.79401176 690.2370412 417.69716088 691.30099683 415.6640625 692.8828125 C412.13649798 695.76230671 409.30216966 698.97260512 406.4296875 702.49609375 C404.8515625 704.1328125 404.8515625 704.1328125 401.8515625 705.1328125 C401.5834375 705.6896875 401.3153125 706.2465625 401.0390625 706.8203125 C399.3187195 710.17045413 396.76580962 712.75706757 393.8515625 715.1328125 C393.1915625 715.1328125 392.5315625 715.1328125 391.8515625 715.1328125 C391.6453125 715.6690625 391.4390625 716.2053125 391.2265625 716.7578125 C389.31905824 720.05259259 386.80336866 722.72644878 383.8515625 725.1328125 C383.1915625 725.1328125 382.5315625 725.1328125 381.8515625 725.1328125 C381.6453125 725.6690625 381.4390625 726.2053125 381.2265625 726.7578125 C379.31905824 730.05259259 376.80336866 732.72644878 373.8515625 735.1328125 C373.1915625 735.1328125 372.5315625 735.1328125 371.8515625 735.1328125 C371.6453125 735.6690625 371.4390625 736.2053125 371.2265625 736.7578125 C369.31905824 740.05259259 366.80336866 742.72644878 363.8515625 745.1328125 C363.1915625 745.1328125 362.5315625 745.1328125 361.8515625 745.1328125 C361.6453125 745.6690625 361.4390625 746.2053125 361.2265625 746.7578125 C359.31905824 750.05259259 356.80336866 752.72644878 353.8515625 755.1328125 C353.1915625 755.1328125 352.5315625 755.1328125 351.8515625 755.1328125 C351.6453125 755.6690625 351.4390625 756.2053125 351.2265625 756.7578125 C349.31905824 760.05259259 346.80336866 762.72644878 343.8515625 765.1328125 C343.1915625 765.1328125 342.5315625 765.1328125 341.8515625 765.1328125 C341.6453125 765.6690625 341.4390625 766.2053125 341.2265625 766.7578125 C339.31905824 770.05259259 336.80336866 772.72644878 333.8515625 775.1328125 C333.1915625 775.1328125 332.5315625 775.1328125 331.8515625 775.1328125 C331.6453125 775.6690625 331.4390625 776.2053125 331.2265625 776.7578125 C329.31905824 780.05259259 326.80336866 782.72644878 323.8515625 785.1328125 C323.1915625 785.1328125 322.5315625 785.1328125 321.8515625 785.1328125 C321.6453125 785.6690625 321.4390625 786.2053125 321.2265625 786.7578125 C319.31905824 790.05259259 316.80336866 792.72644878 313.8515625 795.1328125 C313.1915625 795.1328125 312.5315625 795.1328125 311.8515625 795.1328125 C311.58730469 795.73609375 311.32304688 796.339375 311.05078125 796.9609375 C309.79401176 799.2370412 308.69716088 800.30099683 306.6640625 801.8828125 C303.13649798 804.76230671 300.30216966 807.97260512 297.4296875 811.49609375 C295.8515625 813.1328125 295.8515625 813.1328125 292.8515625 814.1328125 C292.5834375 814.6896875 292.3153125 815.2465625 292.0390625 815.8203125 C290.3187195 819.17045413 287.76580962 821.75706757 284.8515625 824.1328125 C284.1915625 824.1328125 283.5315625 824.1328125 282.8515625 824.1328125 C282.6453125 824.6690625 282.4390625 825.2053125 282.2265625 825.7578125 C280.31905824 829.05259259 277.80336866 831.72644878 274.8515625 834.1328125 C274.1915625 834.1328125 273.5315625 834.1328125 272.8515625 834.1328125 C272.6453125 834.6690625 272.4390625 835.2053125 272.2265625 835.7578125 C270.31905824 839.05259259 267.80336866 841.72644878 264.8515625 844.1328125 C264.1915625 844.1328125 263.5315625 844.1328125 262.8515625 844.1328125 C262.6453125 844.6690625 262.4390625 845.2053125 262.2265625 845.7578125 C260.31905824 849.05259259 257.80336866 851.72644878 254.8515625 854.1328125 C254.1915625 854.1328125 253.5315625 854.1328125 252.8515625 854.1328125 C252.5421875 854.9371875 252.5421875 854.9371875 252.2265625 855.7578125 C250.32574547 859.04104191 247.87515061 861.82472997 244.8515625 864.1328125 C243.8615625 864.1328125 242.8715625 864.1328125 241.8515625 864.1328125 C241.5215625 865.1228125 241.1915625 866.1128125 240.8515625 867.1328125 C233.85041348 871.17385576 224.82240835 871.17818352 217.12109375 869.55859375 C212.8099726 868.26320123 212.8099726 868.26320123 210.8515625 867.1328125 C210.5215625 866.1428125 210.1915625 865.1528125 209.8515625 864.1328125 C208.54403685 863.41685237 207.20628918 862.75485578 205.8515625 862.1328125 C199.94304281 857.62541828 194.84546304 852.28380103 189.9765625 846.6953125 C186.99033072 843.30416794 183.90766539 840.3240338 180.4296875 837.44921875 C176.55742001 834.21913424 173.27953577 830.48644113 169.9765625 826.6953125 C166.99033072 823.30416794 163.90766539 820.3240338 160.4296875 817.44921875 C156.5354415 814.20080068 153.23911519 810.4427687 149.9140625 806.6328125 C147.60148218 804.00230682 145.33710219 801.57124426 142.6015625 799.3828125 C139.88744413 797.16217019 138.0327531 794.85930074 135.8515625 792.1328125 C134.8615625 791.3078125 133.8715625 790.4828125 132.8515625 789.6328125 C130.04934366 787.29763013 128.11635478 784.96380285 125.8515625 782.1328125 C124.8615625 781.3078125 123.8715625 780.4828125 122.8515625 779.6328125 C120.04934366 777.29763013 118.11635478 774.96380285 115.8515625 772.1328125 C114.8615625 771.3078125 113.8715625 770.4828125 112.8515625 769.6328125 C110.04934366 767.29763013 108.11635478 764.96380285 105.8515625 762.1328125 C103.86895824 760.44548973 101.8683283 758.77915193 99.8515625 757.1328125 C96.69521321 754.14258686 93.82924625 750.97041289 90.9765625 747.6953125 C87.99033072 744.30416794 84.90766539 741.3240338 81.4296875 738.44921875 C77.55742001 735.21913424 74.27953577 731.48644113 70.9765625 727.6953125 C67.99033072 724.30416794 64.90766539 721.3240338 61.4296875 718.44921875 C57.5354415 715.20080068 54.23911519 711.4427687 50.9140625 707.6328125 C48.60148218 705.00230682 46.33710219 702.57124426 43.6015625 700.3828125 C40.88744413 698.16217019 39.0327531 695.85930074 36.8515625 693.1328125 C35.8615625 692.3078125 34.8715625 691.4828125 33.8515625 690.6328125 C31.04934366 688.29763013 29.11635478 685.96380285 26.8515625 683.1328125 C25.8615625 682.3078125 24.8715625 681.4828125 23.8515625 680.6328125 C21.04934366 678.29763013 19.11635478 675.96380285 16.8515625 673.1328125 C15.8615625 672.3078125 14.8715625 671.4828125 13.8515625 670.6328125 C11.04934366 668.29763013 9.11635478 665.96380285 6.8515625 663.1328125 C5.8615625 662.3078125 4.8715625 661.4828125 3.8515625 660.6328125 C1.04934366 658.29763013 -0.88364522 655.96380285 -3.1484375 653.1328125 C-5.13104176 651.44548973 -7.1316717 649.77915193 -9.1484375 648.1328125 C-12.30478679 645.14258686 -15.17075375 641.97041289 -18.0234375 638.6953125 C-21.00966928 635.30416794 -24.09233461 632.3240338 -27.5703125 629.44921875 C-31.44257999 626.21913424 -34.72046423 622.48644113 -38.0234375 618.6953125 C-41.00966928 615.30416794 -44.09233461 612.3240338 -47.5703125 609.44921875 C-51.4645585 606.20080068 -54.76088481 602.4427687 -58.0859375 598.6328125 C-60.39851782 596.00230682 -62.66289781 593.57124426 -65.3984375 591.3828125 C-68.11255587 589.16217019 -69.9672469 586.85930074 -72.1484375 584.1328125 C-73.1384375 583.3078125 -74.1284375 582.4828125 -75.1484375 581.6328125 C-77.95065634 579.29763013 -79.88364522 576.96380285 -82.1484375 574.1328125 C-83.1384375 573.3078125 -84.1284375 572.4828125 -85.1484375 571.6328125 C-87.95065634 569.29763013 -89.88364522 566.96380285 -92.1484375 564.1328125 C-93.1384375 563.3078125 -94.1284375 562.4828125 -95.1484375 561.6328125 C-97.95065634 559.29763013 -99.88364522 556.96380285 -102.1484375 554.1328125 C-103.1384375 553.3078125 -104.1284375 552.4828125 -105.1484375 551.6328125 C-107.95065634 549.29763013 -109.88364522 546.96380285 -112.1484375 544.1328125 C-114.13104176 542.44548973 -116.1316717 540.77915193 -118.1484375 539.1328125 C-121.30478679 536.14258686 -124.17075375 532.97041289 -127.0234375 529.6953125 C-130.01016248 526.30360786 -133.09582843 523.32506506 -136.5703125 520.4453125 C-140.61976053 517.07745473 -143.85657501 513.26737508 -147.0859375 509.1328125 C-149.35828138 506.23996041 -151.49509189 503.64668705 -154.3984375 501.3828125 C-157.40534839 498.92261268 -159.02122165 496.3579462 -161.1484375 493.1328125 C-161.9528125 492.5140625 -162.7571875 491.8953125 -163.5859375 491.2578125 C-166.52814656 488.81793182 -167.9782981 486.33245529 -169.8984375 483.07421875 C-171.19531434 480.90949041 -171.19531434 480.90949041 -173.6484375 478.6328125 C-175.83607365 476.44517635 -177.10294945 474.69281254 -178.6484375 472.0703125 C-180.21236156 469.44096518 -181.18324765 468.10583463 -183.6484375 466.1953125 C-186.78112427 463.61084591 -188.10207723 460.80281671 -189.95703125 457.23828125 C-191.35284426 454.77158219 -193.11959797 453.09402405 -195.1484375 451.1328125 C-196.18135426 449.14961232 -197.1821874 447.14933444 -198.1484375 445.1328125 C-198.7053125 444.4109375 -199.2621875 443.6890625 -199.8359375 442.9453125 C-201.1484375 441.1328125 -201.1484375 441.1328125 -201.1484375 438.1328125 C-201.8084375 438.1328125 -202.4684375 438.1328125 -203.1484375 438.1328125 C-204.48702274 435.84407077 -205.81944764 433.55211594 -207.1484375 431.2578125 C-207.53 430.60683594 -207.9115625 429.95585938 -208.3046875 429.28515625 C-211.1484375 424.359375 -211.1484375 424.359375 -211.1484375 422.1328125 C-212.1384375 421.8028125 -213.1284375 421.4728125 -214.1484375 421.1328125 C-215.35071649 418.81893736 -216.36918489 416.60383937 -217.3359375 414.1953125 C-217.60857422 413.54884766 -217.88121094 412.90238281 -218.16210938 412.23632812 C-220.1484375 407.44225799 -220.1484375 407.44225799 -220.1484375 405.1328125 C-220.8084375 405.1328125 -221.4684375 405.1328125 -222.1484375 405.1328125 C-225.49198835 398.23542457 -228.6680977 391.68254547 -230.1484375 384.1328125 C-230.8084375 384.1328125 -231.4684375 384.1328125 -232.1484375 384.1328125 C-233.10867575 381.27927429 -234.06667763 378.42501695 -235.0234375 375.5703125 C-235.29285156 374.77044922 -235.56226563 373.97058594 -235.83984375 373.14648438 C-240.46352863 359.33181614 -240.46352863 359.33181614 -240.1484375 354.1328125 C-240.8084375 354.1328125 -241.4684375 354.1328125 -242.1484375 354.1328125 C-246.42759264 338.55336419 -250.60398363 322.43485625 -250.1484375 306.1328125 C-250.8084375 306.1328125 -251.4684375 306.1328125 -252.1484375 306.1328125 C-252.1484375 282.7028125 -252.1484375 259.2728125 -252.1484375 235.1328125 C-251.4884375 235.1328125 -250.8284375 235.1328125 -250.1484375 235.1328125 C-250.12265625 234.23304688 -250.096875 233.33328125 -250.0703125 232.40625 C-249.70152889 224.0415672 -248.76145816 215.9380536 -247.2734375 207.6953125 C-247.11198242 206.78507324 -246.95052734 205.87483398 -246.78417969 204.93701172 C-245.69575747 199.14723957 -244.16353492 193.66798564 -242.1484375 188.1328125 C-241.4884375 188.1328125 -240.8284375 188.1328125 -240.1484375 188.1328125 C-240.11105469 187.56433594 -240.07367188 186.99585938 -240.03515625 186.41015625 C-239.5804554 181.06965016 -238.42626848 177.03890999 -236.1484375 172.1328125 C-235.08815227 169.15201064 -234.11727602 166.14438283 -233.1484375 163.1328125 C-232.8184375 162.1428125 -232.4884375 161.1528125 -232.1484375 160.1328125 C-231.4884375 160.1328125 -230.8284375 160.1328125 -230.1484375 160.1328125 C-229.7565625 158.8746875 -229.3646875 157.6165625 -228.9609375 156.3203125 C-227.10959656 150.73068698 -224.66298224 145.45013043 -222.1484375 140.1328125 C-221.4884375 140.1328125 -220.8284375 140.1328125 -220.1484375 140.1328125 C-219.87 139.41609375 -219.5915625 138.699375 -219.3046875 137.9609375 C-218.18015475 135.21039118 -216.95797032 132.54978787 -215.6484375 129.8828125 C-215.225625 129.01140625 -214.8028125 128.14 -214.3671875 127.2421875 C-213.1484375 125.1328125 -213.1484375 125.1328125 -211.1484375 124.1328125 C-210.16419425 122.45375122 -210.16419425 122.45375122 -209.2734375 120.4453125 C-207.12121039 115.98940525 -204.8652446 111.7923927 -201.2734375 108.3203125 C-198.60149715 105.56978567 -196.72815712 102.50448026 -194.7109375 99.25390625 C-193.06980676 97.02607127 -191.37729737 95.74126808 -189.1484375 94.1328125 C-188.7153125 93.3696875 -188.2821875 92.6065625 -187.8359375 91.8203125 C-186.24258399 89.2827495 -184.99264643 88.04980784 -182.7109375 86.1953125 C-180.22568742 84.17279727 -178.89868886 82.75440546 -177.0859375 80.0078125 C-174.83505834 76.66779826 -172.52928984 75.27171908 -169.1484375 73.1328125 C-167.46132327 71.4868474 -165.7938753 69.82044101 -164.1484375 68.1328125 C-162.88 67.1428125 -162.88 67.1428125 -161.5859375 66.1328125 C-159.07063305 64.2333809 -159.07063305 64.2333809 -157.3359375 61.6953125 C-154.84579818 58.77829216 -152.30736743 57.25367414 -149.03515625 55.32421875 C-146.7396578 53.87468039 -145.02967286 52.07891804 -143.1484375 50.1328125 C-141.50022506 49.10267973 -139.83340048 48.10166622 -138.1484375 47.1328125 C-137.4471875 46.5759375 -136.7459375 46.0190625 -136.0234375 45.4453125 C-134.1484375 44.1328125 -134.1484375 44.1328125 -131.1484375 44.1328125 C-131.1484375 43.4728125 -131.1484375 42.8128125 -131.1484375 42.1328125 C-130.17261719 41.59011719 -129.19679688 41.04742187 -128.19140625 40.48828125 C-126.90610383 39.765885 -125.62095563 39.04321432 -124.3359375 38.3203125 C-123.69333984 37.96388672 -123.05074219 37.60746094 -122.38867188 37.24023438 C-118.79529264 35.24890432 -118.79529264 35.24890432 -115.67138672 32.61914062 C-113.99993767 30.98788352 -112.56166583 30.2321688 -110.42578125 29.30859375 C-109.72259766 29.00244141 -109.01941406 28.69628906 -108.29492188 28.38085938 C-107.56595703 28.07212891 -106.83699219 27.76339844 -106.0859375 27.4453125 C-105.35310547 27.12498047 -104.62027344 26.80464844 -103.86523438 26.47460938 C-98.42767191 24.1328125 -98.42767191 24.1328125 -96.1484375 24.1328125 C-96.1484375 23.4728125 -96.1484375 22.8128125 -96.1484375 22.1328125 C-94.97925781 21.72289063 -93.81007812 21.31296875 -92.60546875 20.890625 C-91.05727191 20.34641035 -89.50909593 19.8021364 -87.9609375 19.2578125 C-86.80754883 18.85369141 -86.80754883 18.85369141 -85.63085938 18.44140625 C-82.48273527 17.33348274 -79.36589871 16.2235944 -76.28515625 14.9375 C-74.1484375 14.1328125 -74.1484375 14.1328125 -71.1484375 14.1328125 C-71.1484375 13.4728125 -71.1484375 12.8128125 -71.1484375 12.1328125 C-67.1297025 10.97953215 -63.10811327 9.8365295 -59.0859375 8.6953125 C-57.95220703 8.36982422 -56.81847656 8.04433594 -55.65039062 7.70898438 C-47.26175278 5.33668737 -39.86710111 3.97985349 -31.1484375 4.1328125 C-31.1484375 3.4728125 -31.1484375 2.8128125 -31.1484375 2.1328125 C-21.56078201 -1.06307266 -10.0163868 -0.01673102 0 0 Z M-11.1484375 101.1328125 C-11.1484375 101.7928125 -11.1484375 102.4528125 -11.1484375 103.1328125 C-12.42460937 103.24496094 -12.42460937 103.24496094 -13.7265625 103.359375 C-24.98383581 104.58090891 -35.40003281 107.64142849 -46.1484375 111.1328125 C-46.1484375 111.7928125 -46.1484375 112.4528125 -46.1484375 113.1328125 C-46.74269531 113.29136719 -47.33695312 113.44992188 -47.94921875 113.61328125 C-54.67341245 115.50609472 -60.85883362 118.10758478 -67.1484375 121.1328125 C-67.1484375 121.7928125 -67.1484375 122.4528125 -67.1484375 123.1328125 C-68.1075 123.473125 -68.1075 123.473125 -69.0859375 123.8203125 C-71.76964179 124.97047148 -74.31990775 126.2049666 -76.8984375 127.5703125 C-77.67703125 127.98152344 -78.455625 128.39273438 -79.2578125 128.81640625 C-81.45954528 130.06971405 -81.45954528 130.06971405 -82.1484375 133.1328125 C-83.47605854 133.48821548 -84.81081856 133.81711572 -86.1484375 134.1328125 C-88.56011557 135.67951012 -88.56011557 135.67951012 -90.8984375 137.5703125 C-92.09726563 138.49650391 -92.09726563 138.49650391 -93.3203125 139.44140625 C-93.92359375 139.99957031 -94.526875 140.55773437 -95.1484375 141.1328125 C-95.1484375 141.7928125 -95.1484375 142.4528125 -95.1484375 143.1328125 C-95.7053125 143.3803125 -96.2621875 143.6278125 -96.8359375 143.8828125 C-101.27591585 146.2828008 -103.96622133 148.63199164 -106.1484375 153.1328125 C-108.3755056 155.53570176 -110.48057991 157.6875741 -113.2109375 159.5078125 C-116.08125361 161.9151744 -117.35676235 164.84807473 -119.1484375 168.1328125 C-119.8084375 168.7928125 -120.4684375 169.4528125 -121.1484375 170.1328125 C-121.1484375 171.1228125 -121.1484375 172.1128125 -121.1484375 173.1328125 C-122.6334375 173.6278125 -122.6334375 173.6278125 -124.1484375 174.1328125 C-125.80412406 176.5759957 -125.80412406 176.5759957 -127.2734375 179.5078125 C-128.05074219 180.97347656 -128.05074219 180.97347656 -128.84375 182.46875 C-130.22390295 185.13711769 -130.22390295 185.13711769 -131.1484375 188.1328125 C-131.8084375 188.1328125 -132.4684375 188.1328125 -133.1484375 188.1328125 C-134.30934118 190.77288326 -135.4520488 193.41865497 -136.5859375 196.0703125 C-137.07416992 197.17342773 -137.07416992 197.17342773 -137.57226562 198.29882812 C-139.83429781 203.63908969 -140.74033547 208.34466117 -141.1484375 214.1328125 C-141.8084375 214.1328125 -142.4684375 214.1328125 -143.1484375 214.1328125 C-148.81069291 230.27799189 -152.10037413 245.9979532 -151.1484375 263.1328125 C-151.8084375 263.1328125 -152.4684375 263.1328125 -153.1484375 263.1328125 C-153.1484375 267.4228125 -153.1484375 271.7128125 -153.1484375 276.1328125 C-152.4884375 276.1328125 -151.8284375 276.1328125 -151.1484375 276.1328125 C-151.21804687 277.15632812 -151.28765625 278.17984375 -151.359375 279.234375 C-151.84193309 290.15443956 -150.45570838 300.40781072 -148.2734375 311.0703125 C-148.13846863 311.73710022 -148.00349976 312.40388794 -147.86444092 313.09088135 C-146.34069509 321.39477547 -146.34069509 321.39477547 -143.1484375 329.1328125 C-142.4884375 329.1328125 -141.8284375 329.1328125 -141.1484375 329.1328125 C-141.1278125 330.4321875 -141.1071875 331.7315625 -141.0859375 333.0703125 C-140.32952201 341.26087395 -136.45087058 348.70018244 -133.1484375 356.1328125 C-132.4884375 356.1328125 -131.8284375 356.1328125 -131.1484375 356.1328125 C-131.0865625 356.9371875 -131.0246875 357.7415625 -130.9609375 358.5703125 C-130.04864234 362.57037589 -128.46562551 365.47371649 -126.40234375 368.984375 C-125.22696864 370.99825759 -124.16807243 373.03663279 -123.1484375 375.1328125 C-122.4884375 375.1328125 -121.8284375 375.1328125 -121.1484375 375.1328125 C-120.808125 376.6178125 -120.808125 376.6178125 -120.4609375 378.1328125 C-119.20352374 382.55637601 -117.04619665 386.55705201 -114.1484375 390.1328125 C-113.4884375 390.1328125 -112.8284375 390.1328125 -112.1484375 390.1328125 C-111.87773437 390.86371094 -111.60703125 391.59460938 -111.328125 392.34765625 C-108.75487315 398.4229164 -104.86355125 403.56504606 -100.1484375 408.1328125 C-98.56724624 410.20556582 -97.03349208 412.30627256 -95.515625 414.42578125 C-94.24149022 416.26068263 -94.24149022 416.26068263 -92.1484375 417.1328125 C-91.1484375 418.79947917 -90.1484375 420.46614583 -89.1484375 422.1328125 C-87.57235293 424.2575341 -85.93241566 426.16586222 -84.1484375 428.1328125 C-83.4884375 428.1328125 -82.8284375 428.1328125 -82.1484375 428.1328125 C-81.8390625 428.9371875 -81.8390625 428.9371875 -81.5234375 429.7578125 C-79.61593324 433.05259259 -77.10024366 435.72644878 -74.1484375 438.1328125 C-73.4884375 438.1328125 -72.8284375 438.1328125 -72.1484375 438.1328125 C-72.1484375 438.7928125 -72.1484375 439.4528125 -72.1484375 440.1328125 C-58.9752592 440.72085017 -45.80476011 441.13906519 -32.62109375 441.38671875 C-31.52702713 441.40745956 -30.43296051 441.42820038 -29.30574036 441.4495697 C-23.75283234 441.55338729 -18.19988336 441.65037912 -12.64672852 441.73999023 C-10.56656711 441.77707454 -8.48640752 441.81426092 -6.40625 441.8515625 C-5.44578262 441.86510269 -4.48531525 441.87864288 -3.4957428 441.89259338 C-2.60141037 441.90934616 -1.70707794 441.92609894 -0.78564453 441.94335938 C-0.00770538 441.95588745 0.77023376 441.96841553 1.57174683 441.98132324 C4.06601524 442.14706246 6.40344167 442.63696322 8.8515625 443.1328125 C10.25373678 443.23816099 11.65916624 443.30671505 13.06494141 443.33813477 C13.86412994 443.35807999 14.66331848 443.37802521 15.48672485 443.39857483 C16.3418869 443.41528732 17.19704895 443.43199982 18.078125 443.44921875 C19.43156509 443.4803904 19.43156509 443.4803904 20.81234741 443.51219177 C22.72706575 443.55538641 24.6418335 443.59643675 26.55664062 443.63549805 C29.41810195 443.69411494 32.27934081 443.7595209 35.140625 443.82617188 C47.0459518 444.09261669 58.94349208 444.18716755 70.8515625 444.1328125 C71.15835938 443.39458252 71.46515625 442.65635254 71.78125 441.89575195 C72.51302083 440.13492839 73.24479167 438.37410482 73.9765625 436.61328125 C75.01789487 434.0996692 75.01789487 434.0996692 74.8515625 431.1328125 C75.5115625 431.1328125 76.1715625 431.1328125 76.8515625 431.1328125 C81.67860139 418.88381958 81.67860139 418.88381958 84.8515625 406.1328125 C85.5115625 406.1328125 86.1715625 406.1328125 86.8515625 406.1328125 C88.18991236 402.34289757 89.52138913 398.55060414 90.8515625 394.7578125 C91.233125 393.67757813 91.6146875 392.59734375 92.0078125 391.484375 C92.54921875 389.9375 92.54921875 389.9375 93.1015625 388.359375 C93.43671875 387.40627441 93.771875 386.45317383 94.1171875 385.47119141 C94.95143735 383.22329077 94.95143735 383.22329077 94.8515625 381.1328125 C95.5115625 381.1328125 96.1715625 381.1328125 96.8515625 381.1328125 C97.18929687 380.10800781 97.52703125 379.08320313 97.875 378.02734375 C98.3254399 376.66663987 98.77596526 375.30596428 99.2265625 373.9453125 C99.44828125 373.27177734 99.67 372.59824219 99.8984375 371.90429688 C100.85401493 369.02351196 101.82776608 366.18878998 103.015625 363.39453125 C104.08268325 360.90936674 104.08268325 360.90936674 103.8515625 357.1328125 C104.5115625 357.1328125 105.1715625 357.1328125 105.8515625 357.1328125 C106.09390625 356.38257813 106.33625 355.63234375 106.5859375 354.859375 C108.54912907 348.86408996 110.63973634 342.99435916 113.1171875 337.19140625 C114.01956086 335.02615779 114.01956086 335.02615779 113.8515625 332.1328125 C114.5115625 332.1328125 115.1715625 332.1328125 115.8515625 332.1328125 C116.09390625 331.2871875 116.33625 330.4415625 116.5859375 329.5703125 C119.66106417 319.16219145 119.66106417 319.16219145 122.1015625 314.5078125 C124.08172108 311.32255633 124.08172108 311.32255633 123.8515625 308.1328125 C124.8415625 307.8028125 125.8315625 307.4728125 126.8515625 307.1328125 C128.53867673 305.4868474 130.2061247 303.82044101 131.8515625 302.1328125 C132.5115625 301.8028125 133.1715625 301.4728125 133.8515625 301.1328125 C133.8515625 300.4728125 133.8515625 299.8128125 133.8515625 299.1328125 C134.99625 298.91625 134.99625 298.91625 136.1640625 298.6953125 C138.93329158 298.1695531 138.93329158 298.1695531 141.8515625 297.1328125 C148.53083783 296.66882407 154.45382242 297.20141927 160.8515625 299.1328125 C160.8515625 299.7928125 160.8515625 300.4528125 160.8515625 301.1328125 C162.47858032 302.47219616 162.47858032 302.47219616 164.5390625 303.8203125 C168.07829696 306.37055174 170.27225788 308.85033404 172.63671875 312.47265625 C173.91348262 314.21743002 175.22602597 315.4149605 176.9140625 316.7578125 C179.7276655 319.03264046 181.60481794 321.3243818 183.8515625 324.1328125 C184.8415625 324.9371875 185.8315625 325.7415625 186.8515625 326.5703125 C189.92614074 329.19651475 191.64055275 331.78063642 193.8515625 335.1328125 C195.51426537 336.47108554 197.18072431 337.80471035 198.8515625 339.1328125 C199.3465625 339.9784375 199.8415625 340.8240625 200.3515625 341.6953125 C201.68786438 344.29216985 201.68786438 344.29216985 204.2890625 345.5703125 C207.54833392 347.55767312 208.7411929 349.9672581 210.8515625 353.1328125 C212.00956225 354.18699158 213.19923802 355.20715339 214.4140625 356.1953125 C217.35390875 358.58705182 218.92113436 360.85947783 220.8515625 364.1328125 C222.30034878 365.35623203 223.75216137 366.57715765 225.2421875 367.75 C227.57693414 369.75606871 229.45321295 372.07715275 231.4140625 374.44140625 C232.67453601 375.92451774 234.03776072 377.31901072 235.4140625 378.6953125 C237.22826014 380.50951014 238.85341951 382.2858149 240.4765625 384.2578125 C242.21557574 386.36293379 243.89125019 388.25417987 245.8515625 390.1328125 C246.6559375 390.9578125 247.4603125 391.7828125 248.2890625 392.6328125 C252.13037853 396.61958622 252.13037853 396.61958622 257.14160156 398.47338867 C257.95854492 398.45767822 258.77548828 398.44196777 259.6171875 398.42578125 C260.50664063 398.41611328 261.39609375 398.40644531 262.3125 398.39648438 C263.69308594 398.3587793 263.69308594 398.3587793 265.1015625 398.3203125 C266.50535156 398.30000977 266.50535156 398.30000977 267.9375 398.27929688 C270.24277577 398.24401204 272.5468731 398.19471531 274.8515625 398.1328125 C274.8515625 398.7928125 274.8515625 399.4528125 274.8515625 400.1328125 C277.61617959 400.91269906 280.06973443 401.2568766 282.93896484 401.25878906 C283.73434662 401.26259583 284.52972839 401.26640259 285.34921265 401.27032471 C286.20334747 401.27135193 287.0574823 401.27237915 287.9375 401.2734375 C289.77475176 401.29178744 291.61199164 401.31135972 293.44921875 401.33203125 C296.32328088 401.36078649 299.19658629 401.38280735 302.07080078 401.38330078 C325.09139569 401.41124324 325.09139569 401.41124324 334.8515625 407.1328125 C338.26836517 411.14175962 340.19687818 415.16875954 341.8515625 420.1328125 C342.5115625 420.1328125 343.1715625 420.1328125 343.8515625 420.1328125 C343.8515625 429.0428125 343.8515625 437.9528125 343.8515625 447.1328125 C343.1915625 447.1328125 342.5315625 447.1328125 341.8515625 447.1328125 C341.85269043 447.79700195 341.85381836 448.46119141 341.85498047 449.14550781 C341.75086062 475.24790036 341.75086062 475.24790036 334.8515625 483.1328125 C332.16109441 485.1035683 330.04698345 486.03094321 326.8515625 487.1328125 C326.8515625 487.7928125 326.8515625 488.4528125 326.8515625 489.1328125 C306.3915625 489.1328125 285.9315625 489.1328125 264.8515625 489.1328125 C264.8515625 488.4728125 264.8515625 487.8128125 264.8515625 487.1328125 C264.28272842 487.12916687 263.71389435 487.12552124 263.12782288 487.12176514 C257.17326935 487.07974828 251.2194729 487.01027008 245.26538086 486.92529297 C243.04735917 486.89717788 240.82923904 486.87591659 238.61108398 486.86181641 C235.41078644 486.8402559 232.21166063 486.79353743 229.01171875 486.7421875 C228.03010269 486.74095886 227.04848663 486.73973022 226.03712463 486.73846436 C218.146491 486.57299248 212.39328629 484.49396169 205.8515625 480.1328125 C205.5215625 479.1428125 205.1915625 478.1528125 204.8515625 477.1328125 C203.2220524 475.55795463 203.2220524 475.55795463 201.2265625 474.0078125 C197.36100615 470.74603245 194.38602782 467.21289365 191.39453125 463.1484375 C189.9828414 461.30430594 188.52834535 459.73317361 186.8515625 458.1328125 C185.18489583 456.46614583 183.51822917 454.79947917 181.8515625 453.1328125 C181.0471875 452.3903125 181.0471875 452.3903125 180.2265625 451.6328125 C178.8515625 450.1328125 178.8515625 450.1328125 177.4765625 447.6953125 C175.62460421 444.77491674 173.68343856 443.09334208 170.8515625 441.1328125 C170.1915625 441.1328125 169.5315625 441.1328125 168.8515625 441.1328125 C168.34596342 442.56835275 167.8472876 444.0063327 167.3515625 445.4453125 C167.073125 446.24582031 166.7946875 447.04632812 166.5078125 447.87109375 C165.71223143 450.22050672 165.71223143 450.22050672 165.8515625 453.1328125 C165.1915625 453.1328125 164.5315625 453.1328125 163.8515625 453.1328125 C161.9103384 458.24129696 160.02279848 463.36876027 158.1640625 468.5078125 C157.72707031 469.71179688 157.29007812 470.91578125 156.83984375 472.15625 C155.74652696 474.92644138 155.74652696 474.92644138 155.8515625 477.1328125 C155.1915625 477.1328125 154.5315625 477.1328125 153.8515625 477.1328125 C153.52542969 478.195 153.19929688 479.2571875 152.86328125 480.3515625 C152.42244992 481.77882353 151.98100445 483.20589497 151.5390625 484.6328125 C151.3119458 485.36661133 151.0848291 486.10041016 150.85083008 486.85644531 C149.68718756 490.58109418 148.47959065 494.25378967 147.0390625 497.8828125 C145.6227672 501.18229701 145.6227672 501.18229701 145.8515625 505.1328125 C145.1915625 505.1328125 144.5315625 505.1328125 143.8515625 505.1328125 C141.04265742 511.85129351 141.04265742 511.85129351 138.9765625 518.8203125 C137.16215054 524.16274771 133.80113594 527.70629535 129.2890625 531.0078125 C125.29636083 532.85059788 121.43681542 533.25956644 117.07421875 533.265625 C116.1095166 533.26755859 115.14481445 533.26949219 114.15087891 533.27148438 C113.08272949 533.26697266 112.01458008 533.26246094 110.9140625 533.2578125 C109.76599121 533.25587891 108.61791992 533.25394531 107.43505859 533.25195312 C94.61172862 533.19273056 81.79349436 532.86560106 68.97409058 532.56161499 C52.59515819 532.17485841 36.23521828 531.99824874 19.8515625 532.1328125 C22.60159889 536.1337335 25.07355557 539.66533102 28.8515625 542.7578125 C33.34330032 546.5443055 37.3534006 550.53629257 41.1640625 555.0078125 C44.20394511 558.52453944 47.4781426 561.54334813 51.01171875 564.5546875 C54.74043042 567.75298796 57.98499926 571.27742523 61.1640625 575.0078125 C64.20394511 578.52453944 67.4781426 581.54334813 71.01171875 584.5546875 C74.74043042 587.75298796 77.98499926 591.27742523 81.1640625 595.0078125 C84.20273178 598.52313578 87.47512716 601.54120508 91.0078125 604.55078125 C94.56026753 607.5989683 97.6833328 610.9117579 100.6640625 614.5078125 C103.49669764 617.86609127 106.64110202 620.67049209 109.9765625 623.51953125 C113.71322331 626.73461649 116.97372214 630.26419239 120.1640625 634.0078125 C123.20394511 637.52453944 126.4781426 640.54334813 130.01171875 643.5546875 C133.74043042 646.75298796 136.98499926 650.27742523 140.1640625 654.0078125 C143.20394511 657.52453944 146.4781426 660.54334813 150.01171875 663.5546875 C153.74043042 666.75298796 156.98499926 670.27742523 160.1640625 674.0078125 C163.20394511 677.52453944 166.4781426 680.54334813 170.01171875 683.5546875 C173.74043042 686.75298796 176.98499926 690.27742523 180.1640625 694.0078125 C183.20273178 697.52313578 186.47512716 700.54120508 190.0078125 703.55078125 C193.56026753 706.5989683 196.6833328 709.9117579 199.6640625 713.5078125 C202.49669764 716.86609127 205.64110202 719.67049209 208.9765625 722.51953125 C213.49353341 726.40600831 217.31597569 730.78613375 221.10546875 735.36328125 C222.91104751 737.19309597 224.50184793 738.13019906 226.8515625 739.1328125 C227.21507812 738.68550781 227.57859375 738.23820313 227.953125 737.77734375 C230.45888321 734.76400888 232.90755045 731.95832467 235.9765625 729.5078125 C238.87468356 727.27830066 238.87468356 727.27830066 240.8515625 724.6328125 C243.21199447 721.68227254 245.95307987 719.54821469 248.8515625 717.1328125 C249.5115625 716.3078125 250.1715625 715.4828125 250.8515625 714.6328125 C253.21199447 711.68227254 255.95307987 709.54821469 258.8515625 707.1328125 C260.18983554 705.47010963 261.52346035 703.80365069 262.8515625 702.1328125 C264.058125 701.17375 264.058125 701.17375 265.2890625 700.1953125 C268.00761246 698.14588846 268.00761246 698.14588846 270.3515625 695.1328125 C272.68674487 692.33059366 275.02057215 690.39760478 277.8515625 688.1328125 C278.6765625 687.1428125 279.5015625 686.1528125 280.3515625 685.1328125 C282.68674487 682.33059366 285.02057215 680.39760478 287.8515625 678.1328125 C288.6765625 677.1428125 289.5015625 676.1528125 290.3515625 675.1328125 C292.68674487 672.33059366 295.02057215 670.39760478 297.8515625 668.1328125 C298.6765625 667.1428125 299.5015625 666.1528125 300.3515625 665.1328125 C302.6822051 662.33604138 305.01905875 660.38428984 307.8515625 658.1328125 C308.4909375 657.3284375 309.1303125 656.5240625 309.7890625 655.6953125 C312.17912241 652.72584413 314.92753038 650.56950594 317.8515625 648.1328125 C318.5115625 647.3078125 319.1715625 646.4828125 319.8515625 645.6328125 C322.21199447 642.68227254 324.95307987 640.54821469 327.8515625 638.1328125 C328.5115625 637.3078125 329.1715625 636.4828125 329.8515625 635.6328125 C332.21199447 632.68227254 334.95307987 630.54821469 337.8515625 628.1328125 C338.5115625 627.3078125 339.1715625 626.4828125 339.8515625 625.6328125 C342.21199447 622.68227254 344.95307987 620.54821469 347.8515625 618.1328125 C348.5115625 617.3078125 349.1715625 616.4828125 349.8515625 615.6328125 C352.21199447 612.68227254 354.95307987 610.54821469 357.8515625 608.1328125 C358.8415625 606.8953125 358.8415625 606.8953125 359.8515625 605.6328125 C362.21199447 602.68227254 364.95307987 600.54821469 367.8515625 598.1328125 C369.18983554 596.47010963 370.52346035 594.80365069 371.8515625 593.1328125 C372.6559375 592.4934375 373.4603125 591.8540625 374.2890625 591.1953125 C377.00761246 589.14588846 377.00761246 589.14588846 379.3515625 586.1328125 C381.68674487 583.33059366 384.02057215 581.39760478 386.8515625 579.1328125 C387.6765625 578.1428125 388.5015625 577.1528125 389.3515625 576.1328125 C391.68674487 573.33059366 394.02057215 571.39760478 396.8515625 569.1328125 C397.6765625 568.1428125 398.5015625 567.1528125 399.3515625 566.1328125 C401.68674487 563.33059366 404.02057215 561.39760478 406.8515625 559.1328125 C407.6765625 558.1428125 408.5015625 557.1528125 409.3515625 556.1328125 C411.6822051 553.33604138 414.01905875 551.38428984 416.8515625 549.1328125 C417.4909375 548.3284375 418.1303125 547.5240625 418.7890625 546.6953125 C421.17912241 543.72584413 423.92753038 541.56950594 426.8515625 539.1328125 C427.5115625 538.3078125 428.1715625 537.4828125 428.8515625 536.6328125 C431.21199447 533.68227254 433.95307987 531.54821469 436.8515625 529.1328125 C437.5115625 528.3078125 438.1715625 527.4828125 438.8515625 526.6328125 C441.21199447 523.68227254 443.95307987 521.54821469 446.8515625 519.1328125 C447.5115625 518.3078125 448.1715625 517.4828125 448.8515625 516.6328125 C451.21199447 513.68227254 453.95307987 511.54821469 456.8515625 509.1328125 C457.5115625 508.3078125 458.1715625 507.4828125 458.8515625 506.6328125 C461.21199447 503.68227254 463.95307987 501.54821469 466.8515625 499.1328125 C467.5115625 498.3078125 468.1715625 497.4828125 468.8515625 496.6328125 C471.21199447 493.68227254 473.95307987 491.54821469 476.8515625 489.1328125 C478.18983554 487.47010963 479.52346035 485.80365069 480.8515625 484.1328125 C481.6559375 483.4934375 482.4603125 482.8540625 483.2890625 482.1953125 C486.00761246 480.14588846 486.00761246 480.14588846 488.3515625 477.1328125 C490.68674487 474.33059366 493.02057215 472.39760478 495.8515625 470.1328125 C496.6765625 469.1428125 497.5015625 468.1528125 498.3515625 467.1328125 C500.68674487 464.33059366 503.02057215 462.39760478 505.8515625 460.1328125 C506.6765625 459.1428125 507.5015625 458.1528125 508.3515625 457.1328125 C510.68674487 454.33059366 513.02057215 452.39760478 515.8515625 450.1328125 C519.47602848 446.65459421 519.47602848 446.65459421 520.8515625 442.1328125 C521.5940625 441.9265625 522.3365625 441.7203125 523.1015625 441.5078125 C526.66806189 439.7245628 527.72222858 437.45989675 529.8515625 434.1328125 C530.6559375 433.4934375 531.4603125 432.8540625 532.2890625 432.1953125 C535.07303866 429.9545512 536.67614456 427.65984025 538.66015625 424.73046875 C540.12436653 422.76698676 541.88619385 421.57408284 543.8515625 420.1328125 C544.88169527 418.48460006 545.88270878 416.81777548 546.8515625 415.1328125 C547.8515625 414.1328125 548.8515625 413.1328125 549.8515625 412.1328125 C549.8515625 411.4728125 549.8515625 410.8128125 549.8515625 410.1328125 C550.5115625 410.1328125 551.1715625 410.1328125 551.8515625 410.1328125 C553.63757262 408.29513205 553.63757262 408.29513205 555.4140625 405.9453125 C556.03410156 405.16800781 556.65414062 404.39070313 557.29296875 403.58984375 C558.9146865 401.03330123 559.46532444 399.11160739 559.8515625 396.1328125 C560.8415625 395.8028125 561.8315625 395.4728125 562.8515625 395.1328125 C564.69292734 392.38799963 564.69292734 392.38799963 566.4140625 389.1328125 C569.64847558 383.23435596 569.64847558 383.23435596 571.8515625 382.1328125 C572.72439453 380.60319597 573.52720033 379.0331187 574.2890625 377.4453125 C574.72476563 376.54425781 575.16046875 375.64320313 575.609375 374.71484375 C576.01929688 373.86277344 576.42921875 373.01070313 576.8515625 372.1328125 C577.74875 370.4003125 577.74875 370.4003125 578.6640625 368.6328125 C579.99458144 366.29300312 579.99458144 366.29300312 579.8515625 364.1328125 C580.5115625 364.1328125 581.1715625 364.1328125 581.8515625 364.1328125 C582.26148438 363.10800781 582.67140625 362.08320313 583.09375 361.02734375 C584.17708333 358.31901042 585.26041667 355.61067708 586.34375 352.90234375 C586.60124023 352.25475098 586.85873047 351.6071582 587.12402344 350.93994141 C587.74559395 349.39602701 588.39357982 347.86279151 589.046875 346.33203125 C590.02337121 344.0535597 590.02337121 344.0535597 589.8515625 341.1328125 C590.5115625 341.1328125 591.1715625 341.1328125 591.8515625 341.1328125 C592.10550781 340.23820313 592.35945312 339.34359375 592.62109375 338.421875 C592.96527344 337.21273437 593.30945313 336.00359375 593.6640625 334.7578125 C593.93536987 333.79705811 593.93536987 333.79705811 594.2121582 332.81689453 C595.24339999 329.18412132 596.35566579 325.59315302 597.5390625 322.0078125 C599.23467888 316.47862865 599.56498708 310.88408481 599.8515625 305.1328125 C600.5115625 305.1328125 601.1715625 305.1328125 601.8515625 305.1328125 C604.23696446 297.51899889 604.34490978 289.93512002 604.5390625 282.0078125 C604.55869049 281.30326935 604.57831848 280.5987262 604.59854126 279.87283325 C604.84778308 270.76318018 604.92379923 261.67865703 604.5390625 252.5703125 C604.50449951 251.7045459 604.46993652 250.8387793 604.43432617 249.94677734 C604.16693437 245.05551164 603.38265341 240.78857872 601.8515625 236.1328125 C601.1915625 236.1328125 600.5315625 236.1328125 599.8515625 236.1328125 C599.74199219 235.05902344 599.63242187 233.98523438 599.51953125 232.87890625 C599.35994663 231.4426447 599.19975808 230.00645017 599.0390625 228.5703125 C598.96880859 227.86583984 598.89855469 227.16136719 598.82617188 226.43554688 C598.26152353 221.53439925 596.93928879 217.64911836 594.8515625 213.1328125 C594.25584682 211.33095642 593.68872118 209.51912602 593.1640625 207.6953125 C592.91269531 206.83035156 592.66132812 205.96539062 592.40234375 205.07421875 C592.12970703 204.11322266 592.12970703 204.11322266 591.8515625 203.1328125 C591.1915625 203.1328125 590.5315625 203.1328125 589.8515625 203.1328125 C589.71427734 201.87597656 589.71427734 201.87597656 589.57421875 200.59375 C588.74352037 196.6153783 587.16691907 193.3201622 585.2890625 189.7578125 C584.95970703 189.11714844 584.63035156 188.47648437 584.29101562 187.81640625 C583.48516768 186.25142618 582.66937757 184.69157229 581.8515625 183.1328125 C581.1915625 183.1328125 580.5315625 183.1328125 579.8515625 183.1328125 C579.7278125 182.05 579.7278125 182.05 579.6015625 180.9453125 C578.69337259 177.53960033 577.09016448 175.83230312 574.8515625 173.1328125 C574.3565625 172.1015625 573.8615625 171.0703125 573.3515625 170.0078125 C571.77425229 166.9846346 570.55180565 166.07361226 567.8515625 164.1328125 C566.845135 162.47001923 565.84570843 160.80297766 564.8515625 159.1328125 C563.20853297 157.44283927 561.53684938 155.78064856 559.8515625 154.1328125 C557.85772391 151.80734152 555.87547579 149.47399881 553.9140625 147.12109375 C551.66296227 144.95099902 549.75468668 144.19826885 546.8515625 143.1328125 C545.7265625 141.1953125 545.7265625 141.1953125 544.8515625 139.1328125 C542.58799457 136.43808877 539.93835664 134.79493242 536.8515625 133.1328125 C536.1915625 133.1328125 535.5315625 133.1328125 534.8515625 133.1328125 C534.5215625 132.1428125 534.1915625 131.1528125 533.8515625 130.1328125 C531.71724655 128.77672332 529.65467431 127.59317673 527.4140625 126.4453125 C526.81529297 126.12498047 526.21652344 125.80464844 525.59960938 125.47460938 C522.39786225 123.69874367 522.39786225 123.69874367 518.8515625 123.1328125 C518.8515625 122.4728125 518.8515625 121.8128125 518.8515625 121.1328125 C512.34561707 117.63067592 506.00285946 115.00432213 498.8515625 113.1328125 C498.8515625 112.4728125 498.8515625 111.8128125 498.8515625 111.1328125 C495.52344327 110.11488449 492.18865041 109.1209139 488.8515625 108.1328125 C487.55412109 107.73835938 487.55412109 107.73835938 486.23046875 107.3359375 C478.85975672 105.18934083 471.46232904 104.07721419 463.8515625 103.1328125 C463.8515625 102.4728125 463.8515625 101.8128125 463.8515625 101.1328125 C457.38056381 100.3078083 451.07808312 99.98529051 444.55859375 100 C443.13410164 99.99856491 443.13410164 99.99856491 441.68083191 99.99710083 C439.68834364 99.99642474 437.69585309 99.99823888 435.70336914 100.00244141 C432.66222184 100.00781575 429.62122101 100.00246777 426.58007812 99.99609375 C424.63541634 99.99675428 422.69075465 99.99803493 420.74609375 100 C419.39122612 99.99696365 419.39122612 99.99696365 418.00898743 99.99386597 C413.50872546 100.0105272 409.28075288 100.21836971 404.8515625 101.1328125 C404.8515625 101.7928125 404.8515625 102.4528125 404.8515625 103.1328125 C404.23337646 103.19750732 403.61519043 103.26220215 402.97827148 103.32885742 C390.36339459 104.69278611 378.678766 106.40566797 366.8515625 111.1328125 C366.8515625 111.7928125 366.8515625 112.4528125 366.8515625 113.1328125 C365.7378125 113.3803125 364.6240625 113.6278125 363.4765625 113.8828125 C356.97861375 115.5015186 350.80043757 118.07650971 344.8515625 121.1328125 C344.8515625 121.7928125 344.8515625 122.4528125 344.8515625 123.1328125 C344.00335937 123.22433594 343.15515625 123.31585938 342.28125 123.41015625 C338.34519137 124.23950801 335.4782362 125.73008747 331.9765625 127.6953125 C330.82414062 128.33597656 329.67171875 128.97664063 328.484375 129.63671875 C327.61554688 130.13042969 326.74671875 130.62414062 325.8515625 131.1328125 C325.8515625 131.7928125 325.8515625 132.4528125 325.8515625 133.1328125 C325.0678125 133.3390625 324.2840625 133.5453125 323.4765625 133.7578125 C318.60420948 135.6059464 314.07229605 138.0631881 309.8515625 141.1328125 C309.8515625 141.7928125 309.8515625 142.4528125 309.8515625 143.1328125 C309.1915625 143.3390625 308.5315625 143.5453125 307.8515625 143.7578125 C303.48106979 145.76095499 298.06232303 148.71129144 295.8515625 153.1328125 C294.09596868 154.14065339 292.33852824 155.14580879 290.5625 156.1171875 C288.68684807 157.23058819 287.34960368 158.55986926 285.8515625 160.1328125 C284.3665625 160.6278125 284.3665625 160.6278125 282.8515625 161.1328125 C280.99799779 162.88679205 280.99799779 162.88679205 279.2265625 165.0078125 C278.61554688 165.70648438 278.00453125 166.40515625 277.375 167.125 C275.6658213 169.15417594 275.6658213 169.15417594 274.8515625 172.1328125 C274.1503125 172.4009375 273.4490625 172.6690625 272.7265625 172.9453125 C266.30425238 175.59800581 261.89151361 181.06042581 257.4765625 186.25390625 C255.38751373 188.66936889 253.10905757 190.87531743 250.8515625 193.1328125 C249.96887992 194.2098954 249.09396976 195.29339029 248.2265625 196.3828125 C245.8515625 199.1328125 245.8515625 199.1328125 242.8515625 200.1328125 C242.14193359 200.85404297 242.14193359 200.85404297 241.41796875 201.58984375 C237.50556747 205.44370536 231.27955485 206.33349625 225.9765625 206.5703125 C219.77801825 206.34789984 212.90842434 204.88111786 208.1875 200.63671875 C207.00897906 199.18706569 205.9251231 197.66182305 204.8515625 196.1328125 C204.1296875 195.5965625 203.4078125 195.0603125 202.6640625 194.5078125 C200.8515625 193.1328125 200.8515625 193.1328125 199.9765625 191.2265625 C198.65247605 188.7622905 197.34161195 187.81632589 195.0390625 186.2578125 C192.40564095 184.37408573 190.23339023 182.61316587 188.2265625 180.0703125 C185.64721031 176.8800611 183.03469958 174.70641269 179.8515625 172.1328125 C178.51822917 170.79947917 177.18489583 169.46614583 175.8515625 168.1328125 C174.8615625 167.3078125 173.8715625 166.4828125 172.8515625 165.6328125 C169.8515625 163.1328125 169.8515625 163.1328125 168.0390625 161.1953125 C165.909722 159.1876486 163.79944238 157.72613073 161.3515625 156.1328125 C158.12827049 154.03478067 155.48697949 151.94998239 152.8515625 149.1328125 C148.02727628 144.70893515 148.02727628 144.70893515 141.8515625 143.1328125 C141.5215625 142.1428125 141.1915625 141.1528125 140.8515625 140.1328125 C138.53460979 138.70699545 136.24555428 137.40825844 133.8515625 136.1328125 C132.9234375 135.5553125 131.9953125 134.9778125 131.0390625 134.3828125 C128.98205738 132.96743285 128.98205738 132.96743285 126.8515625 133.1328125 C126.5215625 132.1428125 126.1915625 131.1528125 125.8515625 130.1328125 C123.38022169 128.77021963 120.9852087 127.58250459 118.4140625 126.4453125 C117.71990234 126.12498047 117.02574219 125.80464844 116.31054688 125.47460938 C112.72599668 123.73315254 112.72599668 123.73315254 108.8515625 123.1328125 C108.8515625 122.4728125 108.8515625 121.8128125 108.8515625 121.1328125 C105.56213884 119.79389689 102.26967141 118.46263547 98.9765625 117.1328125 C98.03941406 116.75125 97.10226562 116.3696875 96.13671875 115.9765625 C94.79287109 115.43515625 94.79287109 115.43515625 93.421875 114.8828125 C92.59445801 114.54765625 91.76704102 114.2125 90.91455078 113.8671875 C88.90249946 113.02102531 88.90249946 113.02102531 86.8515625 113.1328125 C86.8515625 112.4728125 86.8515625 111.8128125 86.8515625 111.1328125 C74.31607042 106.97622076 61.95724603 104.68249059 48.8515625 103.1328125 C48.8515625 102.4728125 48.8515625 101.8128125 48.8515625 101.1328125 C42.85230932 100.26087082 37.03815531 99.98592254 30.98046875 100 C30.05870346 99.99904327 29.13693817 99.99808655 28.1872406 99.99710083 C26.2484429 99.99642393 24.30964288 99.99824384 22.37084961 100.00244141 C19.42621698 100.00779042 16.48173728 100.00248283 13.53710938 99.99609375 C11.64322883 99.99675474 9.74934839 99.99803633 7.85546875 100 C6.98644424 99.99797577 6.11741974 99.99595154 5.22206116 99.99386597 C-0.3077641 100.01475653 -5.66156996 100.43653935 -11.1484375 101.1328125 Z " fill="#FFFFFF" transform="translate(288.1484375,91.8671875)"/>
</svg>
